<svg id="visual" viewBox="0 0 3840 2160" width="3840" height="2160" xmlns="http://www.w3.org/2000/svg" xmlns:xlink="http://www.w3.org/1999/xlink" version="1.1"><rect x="0" y="0" width="3840" height="2160" fill="#111827"></rect><g fill="none" stroke="#000000" stroke-width="2"><circle r="50" cx="909" cy="1389"></circle><circle r="21" cx="3595" cy="1820"></circle><circle r="47" cx="3520" cy="338"></circle><circle r="46" cx="458" cy="1070"></circle><circle r="41" cx="1201" cy="305"></circle><circle r="23" cx="260" cy="2009"></circle><circle r="43" cx="2956" cy="4"></circle><circle r="24" cx="137" cy="1638"></circle><circle r="37" cx="1946" cy="1365"></circle><circle r="45" cx="2868" cy="381"></circle><circle r="29" cx="136" cy="2077"></circle><circle r="45" cx="1583" cy="96"></circle><circle r="39" cx="3405" cy="899"></circle><circle r="38" cx="1008" cy="663"></circle><circle r="31" cx="38" cy="331"></circle><circle r="23" cx="26" cy="96"></circle><circle r="29" cx="1443" cy="93"></circle><circle r="21" cx="838" cy="1654"></circle><circle r="48" cx="533" cy="604"></circle><circle r="21" cx="2501" cy="1729"></circle><circle r="41" cx="1430" cy="1711"></circle><circle r="26" cx="3710" cy="658"></circle><circle r="44" cx="3055" cy="1715"></circle><circle r="31" cx="425" cy="789"></circle><circle r="26" cx="1122" cy="76"></circle><circle r="20" cx="3418" cy="176"></circle><circle r="20" cx="990" cy="1886"></circle><circle r="36" cx="1251" cy="705"></circle><circle r="22" cx="3283" cy="599"></circle><circle r="45" cx="408" cy="69"></circle><circle r="46" cx="2780" cy="780"></circle><circle r="34" cx="1863" cy="55"></circle><circle r="25" cx="323" cy="1430"></circle><circle r="43" cx="150" cy="780"></circle><circle r="20" cx="65" cy="1099"></circle><circle r="46" cx="1861" cy="849"></circle><circle r="23" cx="852" cy="1865"></circle><circle r="35" cx="1330" cy="1807"></circle><circle r="38" cx="2457" cy="818"></circle><circle r="25" cx="1267" cy="2113"></circle><circle r="36" cx="2223" cy="698"></circle><circle r="30" cx="3586" cy="2114"></circle><circle r="35" cx="2206" cy="1421"></circle><circle r="40" cx="332" cy="1055"></circle><circle r="34" cx="3174" cy="214"></circle><circle r="21" cx="18" cy="1289"></circle><circle r="23" cx="2996" cy="1451"></circle><circle r="33" cx="568" cy="973"></circle><circle r="35" cx="1220" cy="1275"></circle><circle r="21" cx="2112" cy="2139"></circle><circle r="33" cx="2806" cy="254"></circle><circle r="23" cx="2933" cy="1116"></circle><circle r="20" cx="1812" cy="617"></circle><circle r="34" cx="568" cy="789"></circle><circle r="32" cx="3769" cy="305"></circle><circle r="21" cx="1532" cy="1655"></circle><circle r="27" cx="1564" cy="318"></circle><circle r="42" cx="3621" cy="1002"></circle><circle r="33" cx="1937" cy="243"></circle><circle r="27" cx="881" cy="973"></circle><circle r="31" cx="2809" cy="2156"></circle><circle r="40" cx="1466" cy="655"></circle><circle r="39" cx="2667" cy="825"></circle><circle r="29" cx="3767" cy="2125"></circle><circle r="27" cx="3001" cy="1023"></circle><circle r="46" cx="3099" cy="590"></circle><circle r="34" cx="2667" cy="1808"></circle><circle r="28" cx="2355" cy="502"></circle><circle r="40" cx="1837" cy="1044"></circle><circle r="31" cx="3060" cy="1298"></circle><circle r="40" cx="1282" cy="874"></circle><circle r="48" cx="1515" cy="1073"></circle><circle r="29" cx="739" cy="2066"></circle><circle r="30" cx="680" cy="186"></circle><circle r="29" cx="1548" cy="1226"></circle><circle r="30" cx="943" cy="47"></circle><circle r="35" cx="3710" cy="1624"></circle><circle r="40" cx="1424" cy="1214"></circle><circle r="28" cx="827" cy="488"></circle><circle r="28" cx="1964" cy="616"></circle><circle r="32" cx="1189" cy="977"></circle><circle r="29" cx="326" cy="1316"></circle><circle r="20" cx="1979" cy="2138"></circle><circle r="21" cx="423" cy="548"></circle><circle r="25" cx="2271" cy="2074"></circle><circle r="35" cx="201" cy="137"></circle><circle r="26" cx="2167" cy="1157"></circle><circle r="28" cx="2758" cy="142"></circle><circle r="42" cx="3232" cy="877"></circle><circle r="43" cx="2235" cy="1792"></circle><circle r="44" cx="3594" cy="1640"></circle><circle r="21" cx="3323" cy="56"></circle><circle r="47" cx="2192" cy="1569"></circle><circle r="25" cx="1681" cy="1764"></circle><circle r="45" cx="2204" cy="880"></circle><circle r="33" cx="2553" cy="1527"></circle><circle r="48" cx="2333" cy="1225"></circle><circle r="28" cx="1248" cy="1738"></circle><circle r="48" cx="1106" cy="786"></circle><circle r="23" cx="2544" cy="2115"></circle><circle r="45" cx="1128" cy="1562"></circle><circle r="32" cx="2059" cy="437"></circle><circle r="35" cx="1661" cy="1530"></circle><circle r="47" cx="1656" cy="1907"></circle><circle r="42" cx="2692" cy="711"></circle><circle r="38" cx="3787" cy="520"></circle><circle r="36" cx="3042" cy="476"></circle><circle r="22" cx="861" cy="812"></circle><circle r="40" cx="2355" cy="1053"></circle><circle r="48" cx="3054" cy="1601"></circle><circle r="27" cx="2883" cy="861"></circle><circle r="26" cx="1786" cy="2040"></circle><circle r="22" cx="3323" cy="1222"></circle><circle r="36" cx="3207" cy="392"></circle><circle r="45" cx="1374" cy="362"></circle><circle r="27" cx="3299" cy="1471"></circle><circle r="45" cx="3166" cy="1229"></circle><circle r="33" cx="3310" cy="1743"></circle><circle r="23" cx="2587" cy="1188"></circle><circle r="32" cx="3584" cy="140"></circle><circle r="42" cx="1408" cy="1052"></circle><circle r="25" cx="489" cy="1828"></circle><circle r="30" cx="1745" cy="1132"></circle><circle r="29" cx="3788" cy="973"></circle><circle r="34" cx="839" cy="1222"></circle><circle r="41" cx="1451" cy="440"></circle><circle r="46" cx="3713" cy="1234"></circle><circle r="41" cx="565" cy="322"></circle><circle r="46" cx="1653" cy="1056"></circle><circle r="41" cx="311" cy="1200"></circle><circle r="39" cx="3666" cy="2016"></circle><circle r="22" cx="2022" cy="1894"></circle><circle r="42" cx="2378" cy="945"></circle><circle r="20" cx="898" cy="1123"></circle><circle r="40" cx="3781" cy="1780"></circle><circle r="20" cx="2050" cy="811"></circle><circle r="39" cx="3294" cy="1029"></circle><circle r="23" cx="3596" cy="461"></circle><circle r="25" cx="1038" cy="1238"></circle><circle r="36" cx="1912" cy="2034"></circle><circle r="38" cx="32" cy="1799"></circle><circle r="42" cx="453" cy="212"></circle><circle r="24" cx="3010" cy="2103"></circle><circle r="45" cx="2492" cy="136"></circle><circle r="42" cx="2959" cy="685"></circle><circle r="42" cx="752" cy="1433"></circle><circle r="22" cx="2930" cy="1586"></circle><circle r="28" cx="2287" cy="215"></circle><circle r="30" cx="579" cy="1736"></circle><circle r="28" cx="1378" cy="2035"></circle><circle r="25" cx="2006" cy="1541"></circle><circle r="30" cx="2888" cy="603"></circle><circle r="31" cx="1615" cy="716"></circle><circle r="45" cx="2832" cy="1460"></circle><circle r="22" cx="928" cy="2073"></circle><circle r="32" cx="553" cy="2073"></circle><circle r="41" cx="3153" cy="2136"></circle><circle r="26" cx="2516" cy="643"></circle><circle r="35" cx="297" cy="218"></circle><circle r="24" cx="689" cy="886"></circle><circle r="38" cx="1498" cy="2023"></circle><circle r="41" cx="1282" cy="1394"></circle><circle r="44" cx="1005" cy="176"></circle><circle r="23" cx="2345" cy="18"></circle><circle r="28" cx="3650" cy="1515"></circle><circle r="47" cx="1757" cy="1447"></circle><circle r="36" cx="628" cy="1577"></circle><circle r="23" cx="2617" cy="84"></circle><circle r="42" cx="3103" cy="796"></circle><circle r="22" cx="137" cy="35"></circle><circle r="32" cx="1883" cy="1543"></circle><circle r="26" cx="782" cy="135"></circle><circle r="48" cx="3591" cy="598"></circle><circle r="43" cx="2788" cy="1195"></circle><circle r="41" cx="2217" cy="564"></circle><circle r="29" cx="2827" cy="1681"></circle><circle r="29" cx="843" cy="614"></circle><circle r="39" cx="392" cy="2020"></circle><circle r="20" cx="1303" cy="117"></circle><circle r="24" cx="1591" cy="576"></circle><circle r="23" cx="727" cy="1299"></circle><circle r="28" cx="1160" cy="1432"></circle><circle r="29" cx="2870" cy="984"></circle><circle r="44" cx="1090" cy="2000"></circle><circle r="28" cx="149" cy="252"></circle><circle r="47" cx="2336" cy="1667"></circle><circle r="23" cx="2724" cy="1535"></circle><circle r="30" cx="1531" cy="1472"></circle><circle r="38" cx="477" cy="1553"></circle><circle r="27" cx="1142" cy="2127"></circle><circle r="22" cx="1310" cy="469"></circle><circle r="33" cx="133" cy="1858"></circle><circle r="33" cx="822" cy="383"></circle><circle r="34" cx="2600" cy="194"></circle><circle r="28" cx="590" cy="1113"></circle><circle r="25" cx="1760" cy="527"></circle><circle r="21" cx="3790" cy="20"></circle><circle r="42" cx="95" cy="1544"></circle><circle r="34" cx="3284" cy="2046"></circle><circle r="38" cx="3323" cy="1598"></circle><circle r="37" cx="2690" cy="252"></circle><circle r="48" cx="250" cy="1603"></circle><circle r="36" cx="659" cy="493"></circle><circle r="26" cx="2357" cy="1493"></circle><circle r="29" cx="1700" cy="940"></circle><circle r="22" cx="3088" cy="1966"></circle><circle r="32" cx="2649" cy="966"></circle><circle r="28" cx="2455" cy="1141"></circle><circle r="37" cx="2652" cy="2046"></circle><circle r="24" cx="2343" cy="1365"></circle><circle r="27" cx="1469" cy="790"></circle><circle r="30" cx="439" cy="1395"></circle><circle r="48" cx="3358" cy="1351"></circle><circle r="31" cx="1937" cy="963"></circle><circle r="26" cx="3618" cy="1368"></circle><circle r="29" cx="12" cy="1694"></circle><circle r="27" cx="1783" cy="1262"></circle><circle r="47" cx="2092" cy="593"></circle><circle r="43" cx="1616" cy="1364"></circle><circle r="48" cx="3562" cy="2009"></circle><circle r="24" cx="1447" cy="2131"></circle><circle r="42" cx="1463" cy="955"></circle><circle r="44" cx="3141" cy="992"></circle><circle r="40" cx="2247" cy="1036"></circle><circle r="45" cx="1611" cy="2083"></circle><circle r="45" cx="1376" cy="1531"></circle><circle r="21" cx="3825" cy="1218"></circle><circle r="22" cx="1295" cy="980"></circle><circle r="43" cx="3017" cy="900"></circle><circle r="34" cx="3215" cy="8"></circle><circle r="23" cx="942" cy="1634"></circle><circle r="48" cx="2174" cy="431"></circle><circle r="46" cx="2103" cy="1761"></circle><circle r="46" cx="2378" cy="668"></circle><circle r="45" cx="2547" cy="310"></circle><circle r="43" cx="1482" cy="1879"></circle><circle r="43" cx="690" cy="1812"></circle><circle r="31" cx="1231" cy="1083"></circle><circle r="20" cx="3813" cy="1613"></circle><circle r="47" cx="691" cy="594"></circle><circle r="28" cx="3102" cy="308"></circle><circle r="24" cx="125" cy="630"></circle><circle r="31" cx="2472" cy="25"></circle><circle r="36" cx="1151" cy="1665"></circle><circle r="26" cx="584" cy="1246"></circle><circle r="21" cx="3478" cy="1525"></circle><circle r="47" cx="3799" cy="749"></circle><circle r="27" cx="834" cy="1996"></circle><circle r="45" cx="3119" cy="1826"></circle><circle r="37" cx="1703" cy="192"></circle><circle r="35" cx="167" cy="532"></circle><circle r="42" cx="2432" cy="286"></circle><circle r="33" cx="279" cy="694"></circle><circle r="23" cx="757" cy="1575"></circle><circle r="48" cx="1879" cy="537"></circle><circle r="26" cx="426" cy="1727"></circle><circle r="38" cx="2162" cy="242"></circle><circle r="39" cx="1488" cy="200"></circle><circle r="45" cx="2224" cy="1897"></circle><circle r="21" cx="3504" cy="1714"></circle><circle r="40" cx="2855" cy="1887"></circle><circle r="28" cx="2586" cy="449"></circle><circle r="41" cx="2440" cy="2119"></circle><circle r="41" cx="2926" cy="479"></circle><circle r="23" cx="547" cy="1405"></circle><circle r="29" cx="2888" cy="2083"></circle><circle r="38" cx="1335" cy="608"></circle><circle r="29" cx="2419" cy="1849"></circle><circle r="29" cx="39" cy="752"></circle><circle r="41" cx="2808" cy="1351"></circle><circle r="39" cx="2509" cy="939"></circle><circle r="43" cx="3683" cy="821"></circle><circle r="39" cx="701" cy="726"></circle><circle r="36" cx="440" cy="685"></circle><circle r="34" cx="3243" cy="1926"></circle><circle r="24" cx="1933" cy="1821"></circle><circle r="42" cx="2988" cy="322"></circle><circle r="23" cx="1780" cy="1570"></circle><circle r="45" cx="710" cy="1045"></circle><circle r="40" cx="3488" cy="967"></circle><circle r="24" cx="3209" cy="1338"></circle><circle r="44" cx="3617" cy="287"></circle><circle r="29" cx="500" cy="463"></circle><circle r="30" cx="1401" cy="1417"></circle><circle r="35" cx="3117" cy="113"></circle><circle r="34" cx="23" cy="574"></circle><circle r="34" cx="369" cy="1619"></circle><circle r="29" cx="3574" cy="1168"></circle><circle r="21" cx="2746" cy="449"></circle><circle r="39" cx="1968" cy="125"></circle><circle r="39" cx="11" cy="443"></circle><circle r="38" cx="2685" cy="603"></circle><circle r="41" cx="2138" cy="1310"></circle><circle r="24" cx="734" cy="296"></circle><circle r="30" cx="3507" cy="1327"></circle><circle r="47" cx="3380" cy="1999"></circle><circle r="30" cx="23" cy="908"></circle><circle r="38" cx="3455" cy="588"></circle><circle r="41" cx="200" cy="1347"></circle><circle r="38" cx="968" cy="409"></circle><circle r="33" cx="2034" cy="278"></circle><circle r="37" cx="458" cy="343"></circle><circle r="32" cx="3380" cy="354"></circle><circle r="26" cx="2464" cy="1469"></circle><circle r="25" cx="2945" cy="1699"></circle><circle r="29" cx="2668" cy="1382"></circle><circle r="24" cx="2475" cy="447"></circle><circle r="20" cx="124" cy="1972"></circle><circle r="31" cx="2060" cy="2001"></circle><circle r="23" cx="3768" cy="1937"></circle><circle r="41" cx="3491" cy="763"></circle><circle r="22" cx="195" cy="981"></circle><circle r="41" cx="3837" cy="1433"></circle><circle r="25" cx="3012" cy="1882"></circle><circle r="46" cx="638" cy="1457"></circle><circle r="23" cx="254" cy="362"></circle><circle r="45" cx="2346" cy="794"></circle><circle r="45" cx="3155" cy="1111"></circle><circle r="40" cx="966" cy="288"></circle><circle r="22" cx="946" cy="1750"></circle><circle r="35" cx="2048" cy="1406"></circle><circle r="44" cx="2451" cy="1635"></circle><circle r="45" cx="312" cy="2142"></circle><circle r="36" cx="357" cy="382"></circle><circle r="33" cx="1627" cy="1156"></circle><circle r="37" cx="988" cy="861"></circle><circle r="21" cx="864" cy="228"></circle><circle r="38" cx="462" cy="936"></circle><circle r="41" cx="2760" cy="1022"></circle><circle r="33" cx="205" cy="1198"></circle><circle r="22" cx="1937" cy="397"></circle><circle r="46" cx="3722" cy="100"></circle><circle r="35" cx="2544" cy="1895"></circle><circle r="23" cx="1180" cy="476"></circle><circle r="23" cx="3286" cy="494"></circle><circle r="36" cx="1805" cy="1920"></circle><circle r="37" cx="350" cy="1833"></circle><circle r="39" cx="1589" cy="844"></circle><circle r="28" cx="3238" cy="717"></circle><circle r="29" cx="3489" cy="485"></circle><circle r="31" cx="1714" cy="389"></circle><circle r="28" cx="2106" cy="72"></circle><circle r="36" cx="361" cy="870"></circle><circle r="24" cx="1105" cy="250"></circle><circle r="33" cx="2016" cy="20"></circle><circle r="40" cx="563" cy="56"></circle><circle r="29" cx="2473" cy="1298"></circle><circle r="35" cx="1863" cy="2158"></circle><circle r="21" cx="3483" cy="2089"></circle><circle r="23" cx="1352" cy="6"></circle><circle r="33" cx="2863" cy="73"></circle><circle r="38" cx="2936" cy="1335"></circle><circle r="46" cx="1097" cy="377"></circle><circle r="26" cx="3759" cy="1344"></circle><circle r="23" cx="2528" cy="2013"></circle><circle r="33" cx="1287" cy="238"></circle><circle r="21" cx="1849" cy="166"></circle><circle r="24" cx="1605" cy="446"></circle><circle r="43" cx="3212" cy="1670"></circle><circle r="24" cx="2788" cy="908"></circle><circle r="48" cx="1967" cy="1249"></circle><circle r="46" cx="575" cy="1970"></circle><circle r="21" cx="3570" cy="851"></circle><circle r="22" cx="2055" cy="982"></circle><circle r="40" cx="14" cy="1439"></circle><circle r="22" cx="1737" cy="73"></circle><circle r="32" cx="2793" cy="1971"></circle></g></svg>