<svg version="1.1" id="Layer_1" xmlns="http://www.w3.org/2000/svg" xmlns:xlink="http://www.w3.org/1999/xlink" x="0px" y="0px"
	 width="100%" viewBox="0 0 500 500" enable-background="new 0 0 500 500" xml:space="preserve">
<path fill="#000000" opacity="1.000000" stroke="none" 
	d="
M323.000000,501.000000 
	C215.333359,501.000000 108.166718,501.000000 1.000057,501.000000 
	C1.000038,334.333405 1.000038,167.666794 1.000019,1.000147 
	C167.666565,1.000098 334.333130,1.000098 500.999756,1.000049 
	C500.999847,167.666519 500.999847,334.333038 500.999939,500.999786 
	C441.833344,501.000000 382.666656,501.000000 323.000000,501.000000 
M211.160309,142.305588 
	C211.106583,151.399246 211.009735,160.493042 211.041992,169.586395 
	C211.047302,171.084656 211.619064,172.580917 211.970825,174.768036 
	C215.801315,180.045273 218.719788,181.037354 224.790894,179.125961 
	C231.149963,177.123947 233.933105,173.759247 233.992905,167.949142 
	C234.022049,165.118393 233.968201,162.286682 234.007904,159.456192 
	C234.067200,155.229736 235.920029,152.460464 240.063370,150.877304 
	C265.337708,141.220078 290.556213,131.416763 315.795258,121.667091 
	C321.749847,119.366875 327.713348,123.223404 327.951019,129.757309 
	C328.162781,135.578186 328.171661,141.420166 327.930542,147.238754 
	C327.782288,150.815750 326.302399,153.756927 322.513733,155.188873 
	C314.705719,158.139984 306.983612,161.317566 299.210541,164.362045 
	C269.788391,175.885818 240.382126,187.450714 210.925644,198.886139 
	C193.073410,205.816605 175.135223,212.525497 157.247116,219.363937 
	C154.221024,220.520752 151.534210,222.057663 151.120453,226.436432 
	C151.076462,247.822830 151.021866,269.209229 151.028458,290.595612 
	C151.028702,291.424255 151.616257,292.252716 151.997543,293.823914 
	C154.289734,298.846832 157.590591,300.397614 163.133087,298.375946 
	C174.989166,294.051392 186.776627,289.534882 198.548416,284.983734 
	C224.688980,274.877441 250.793182,264.677094 276.931244,254.564316 
	C289.771271,249.596542 302.602234,244.597000 315.537506,239.887146 
	C322.598541,237.316147 327.889038,241.348846 327.994141,248.921417 
	C328.035736,251.917465 327.952271,254.915573 328.011902,257.911011 
	C328.113831,263.032440 326.182587,266.918762 321.265167,268.871613 
	C305.445190,275.154236 289.683807,281.601715 273.705658,287.455566 
	C270.067444,288.788452 267.814758,290.341614 266.138062,294.365021 
	C266.151154,316.798157 266.164246,339.231293 265.905579,362.351318 
	C264.571289,363.735199 263.461334,365.507446 261.861481,366.431702 
	C256.610779,369.465118 251.249084,372.327179 245.803085,374.996002 
	C240.390594,377.648407 236.252228,375.806427 233.922852,369.074554 
	C233.948975,346.381897 233.986374,323.689270 233.963928,300.996643 
	C233.962921,299.988373 233.416748,298.980621 233.044052,297.241211 
	C230.367950,291.635162 226.851318,289.169495 222.668076,290.133331 
	C213.999680,292.130524 210.860275,295.630615 210.900604,302.035126 
	C211.112610,335.693604 210.998138,369.354095 210.995377,403.013916 
	C210.994766,410.499969 216.480255,414.904053 223.325546,412.141815 
	C230.439713,409.271088 237.182098,405.472290 244.062225,402.029724 
	C257.140259,395.485992 270.212280,388.929993 283.260284,382.326660 
	C286.637939,380.617279 289.381104,378.335388 289.889801,373.568420 
	C289.873901,352.051758 289.858002,330.535065 290.181091,308.414917 
	C292.351501,306.664948 294.260651,304.256042 296.735809,303.274689 
	C310.136963,297.961121 323.786316,293.263550 337.112946,287.777405 
	C341.836578,285.832825 348.087036,285.474121 350.830780,278.719086 
	C350.886871,257.475739 350.951172,236.232407 350.961517,214.989044 
	C350.961853,214.312729 350.407593,213.636169 350.058197,212.226868 
	C346.002625,206.643433 341.527008,205.426331 335.296448,207.882187 
	C322.346161,212.986710 309.351196,217.978134 296.366516,222.995087 
	C273.918091,231.668625 251.470596,240.344696 229.008896,248.983780 
	C214.798767,254.449188 200.622620,260.011749 186.317047,265.216858 
	C177.981308,268.249847 174.041855,265.163452 174.001175,256.238159 
	C173.985245,252.740799 174.178452,249.231903 173.957825,245.748459 
	C173.596420,240.042221 176.481537,236.878708 181.518463,234.990982 
	C190.729492,231.538925 199.904861,227.991028 209.078842,224.441025 
	C237.830017,213.315384 266.563477,202.143936 295.324097,191.042786 
	C311.691986,184.725037 328.097473,178.504517 344.490814,172.252899 
	C347.843964,170.974182 350.602417,169.271118 350.872986,164.586517 
	C350.918091,142.196457 350.973328,119.806389 350.968414,97.416336 
	C350.968231,96.584152 350.382416,95.752098 349.783386,94.271156 
	C346.786652,89.126816 342.722290,87.677040 336.454956,90.007904 
	C324.514771,94.448509 312.645203,99.079361 300.754272,103.651985 
	C273.620087,114.086349 246.494003,124.541740 219.355377,134.964462 
	C215.918686,136.284332 212.798355,137.857590 211.160309,142.305588 
z"/>
<path fill="#0E9488" opacity="1.000000" stroke="none" 
	d="
M233.843414,370.018951 
	C236.252228,375.806427 240.390594,377.648407 245.803085,374.996002 
	C251.249084,372.327179 256.610779,369.465118 261.861481,366.431702 
	C263.461334,365.507446 264.571289,363.735199 266.256226,361.681488 
	C266.706665,338.656128 266.806458,316.300598 266.906311,293.945068 
	C267.814758,290.341614 270.067444,288.788452 273.705658,287.455566 
	C289.683807,281.601715 305.445190,275.154236 321.265167,268.871613 
	C326.182587,266.918762 328.113831,263.032440 328.011902,257.911011 
	C327.952271,254.915573 328.035736,251.917465 327.994141,248.921417 
	C327.889038,241.348846 322.598541,237.316147 315.537506,239.887146 
	C302.602234,244.597000 289.771271,249.596542 276.931244,254.564316 
	C250.793182,264.677094 224.688980,274.877441 198.548416,284.983734 
	C186.776627,289.534882 174.989166,294.051392 163.133087,298.375946 
	C157.590591,300.397614 154.289734,298.846832 152.021820,292.981873 
	C151.983734,270.089630 151.921387,248.039383 151.859039,225.989136 
	C151.534210,222.057663 154.221024,220.520752 157.247116,219.363937 
	C175.135223,212.525497 193.073410,205.816605 210.925644,198.886139 
	C240.382126,187.450714 269.788391,175.885818 299.210541,164.362045 
	C306.983612,161.317566 314.705719,158.139984 322.513733,155.188873 
	C326.302399,153.756927 327.782288,150.815750 327.930542,147.238754 
	C328.171661,141.420166 328.162781,135.578186 327.951019,129.757309 
	C327.713348,123.223404 321.749847,119.366875 315.795258,121.667091 
	C290.556213,131.416763 265.337708,141.220078 240.063370,150.877304 
	C235.920029,152.460464 234.067200,155.229736 234.007904,159.456192 
	C233.968201,162.286682 234.022049,165.118393 233.992905,167.949142 
	C233.933105,173.759247 231.149963,177.123947 224.790894,179.125961 
	C218.719788,181.037354 215.801315,180.045273 211.982330,173.950531 
	C211.978622,162.722000 211.963409,152.310974 211.948196,141.899948 
	C212.798355,137.857590 215.918686,136.284332 219.355377,134.964462 
	C246.494003,124.541740 273.620087,114.086349 300.754272,103.651985 
	C312.645203,99.079361 324.514771,94.448509 336.454956,90.007904 
	C342.722290,87.677040 346.786652,89.126816 349.871368,95.066414 
	C350.014557,118.916145 350.069763,141.970612 350.124939,165.025085 
	C350.602417,169.271118 347.843964,170.974182 344.490814,172.252899 
	C328.097473,178.504517 311.691986,184.725037 295.324097,191.042786 
	C266.563477,202.143936 237.830017,213.315384 209.078842,224.441025 
	C199.904861,227.991028 190.729492,231.538925 181.518463,234.990982 
	C176.481537,236.878708 173.596420,240.042221 173.957825,245.748459 
	C174.178452,249.231903 173.985245,252.740799 174.001175,256.238159 
	C174.041855,265.163452 177.981308,268.249847 186.317047,265.216858 
	C200.622620,260.011749 214.798767,254.449188 229.008896,248.983780 
	C251.470596,240.344696 273.918091,231.668625 296.366516,222.995087 
	C309.351196,217.978134 322.346161,212.986710 335.296448,207.882187 
	C341.527008,205.426331 346.002625,206.643433 350.026917,213.061569 
	C350.008881,235.637619 350.022125,257.378967 350.035400,279.120331 
	C348.087036,285.474121 341.836578,285.832825 337.112946,287.777405 
	C323.786316,293.263550 310.136963,297.961121 296.735809,303.274689 
	C294.260651,304.256042 292.351501,306.664948 289.741272,309.039124 
	C289.249786,331.112244 289.198120,352.561157 289.146454,374.010101 
	C289.381104,378.335388 286.637939,380.617279 283.260284,382.326660 
	C270.212280,388.929993 257.140259,395.485992 244.062225,402.029724 
	C237.182098,405.472290 230.439713,409.271088 223.325546,412.141815 
	C216.480255,414.904053 210.994766,410.499969 210.995377,403.013916 
	C210.998138,369.354095 211.112610,335.693604 210.900604,302.035126 
	C210.860275,295.630615 213.999680,292.130524 222.668076,290.133331 
	C226.851318,289.169495 230.367950,291.635162 233.024689,298.074402 
	C233.003632,320.688416 232.980774,342.469299 233.036865,364.250000 
	C233.041809,366.173645 233.562347,368.096008 233.843414,370.018951 
z"/>
<path fill="#E4F3F1" opacity="1.000000" stroke="none" 
	d="
M233.883133,369.546753 
	C233.562347,368.096008 233.041809,366.173645 233.036865,364.250000 
	C232.980774,342.469299 233.003632,320.688416 233.064926,298.440094 
	C233.416748,298.980621 233.962921,299.988373 233.963928,300.996643 
	C233.986374,323.689270 233.948975,346.381897 233.883133,369.546753 
z"/>
<path fill="#A7D8D4" opacity="1.000000" stroke="none" 
	d="
M350.498962,164.805801 
	C350.069763,141.970612 350.014557,118.916145 350.014404,95.390823 
	C350.382416,95.752098 350.968231,96.584152 350.968414,97.416336 
	C350.973328,119.806389 350.918091,142.196457 350.498962,164.805801 
z"/>
<path fill="#B2DCD9" opacity="1.000000" stroke="none" 
	d="
M266.522156,294.155029 
	C266.806458,316.300598 266.706665,338.656128 266.392090,361.338043 
	C266.164246,339.231293 266.151154,316.798157 266.522156,294.155029 
z"/>
<path fill="#B2DCD9" opacity="1.000000" stroke="none" 
	d="
M151.489746,226.212784 
	C151.921387,248.039383 151.983734,270.089630 151.988113,292.610565 
	C151.616257,292.252716 151.028702,291.424255 151.028458,290.595612 
	C151.021866,269.209229 151.076462,247.822830 151.489746,226.212784 
z"/>
<path fill="#CCE9E6" opacity="1.000000" stroke="none" 
	d="
M350.433105,278.919708 
	C350.022125,257.378967 350.008881,235.637619 350.053741,213.427994 
	C350.407593,213.636169 350.961853,214.312729 350.961517,214.989044 
	C350.951172,236.232407 350.886871,257.475739 350.433105,278.919708 
z"/>
<path fill="#CCE9E6" opacity="1.000000" stroke="none" 
	d="
M289.518127,373.789246 
	C289.198120,352.561157 289.249786,331.112244 289.571777,309.340851 
	C289.858002,330.535065 289.873901,352.051758 289.518127,373.789246 
z"/>
<path fill="#B2DCD9" opacity="1.000000" stroke="none" 
	d="
M211.554260,142.102768 
	C211.963409,152.310974 211.978622,162.722000 211.961426,173.605560 
	C211.619064,172.580917 211.047302,171.084656 211.041992,169.586395 
	C211.009735,160.493042 211.106583,151.399246 211.554260,142.102768 
z"/>
</svg>