<?xml version="1.0" standalone="no"?>
<!DOCTYPE svg PUBLIC "-//W3C//DTD SVG 20010904//EN"
 "http://www.w3.org/TR/2001/REC-SVG-20010904/DTD/svg10.dtd">
<svg version="1.0" xmlns="http://www.w3.org/2000/svg"
 width="1200.000000pt" height="1200.000000pt" viewBox="0 0 1200.000000 1200.000000"
 preserveAspectRatio="xMidYMid meet">

<g transform="translate(0.000000,1200.000000) scale(0.100000,-0.100000)"
fill="#000000" stroke="none">
<path d="M3400 9314 c-225 -49 -425 -242 -496 -479 -29 -95 -25 -277 8 -378
71 -214 230 -374 443 -444 72 -24 99 -27 268 -31 103 -2 187 -6 187 -9 0 -3
-18 -45 -39 -93 -140 -310 -206 -624 -205 -980 1 -358 64 -664 200 -974 24
-54 44 -100 44 -102 0 -2 -52 -4 -116 -4 -143 0 -233 -19 -343 -73 -134 -65
-260 -196 -320 -331 -70 -161 -71 -378 -1 -540 74 -173 223 -311 403 -373 l82
-28 2535 0 2535 0 75 28 c109 40 175 82 261 168 63 62 85 93 122 170 58 120
72 180 71 304 -1 265 -140 488 -379 605 -111 55 -194 70 -386 70 -87 0 -159 4
-159 9 0 4 15 41 34 82 278 607 284 1321 15 1947 -27 63 -49 116 -49 117 0 1
64 5 143 8 185 7 283 37 403 123 292 207 373 599 186 901 -95 155 -236 259
-410 304 -73 19 -136 19 -2561 18 -2107 -1 -2496 -3 -2551 -15z m279 -179
c224 -59 371 -249 371 -480 0 -143 -47 -252 -153 -352 -100 -95 -205 -137
-342 -136 -273 1 -486 217 -486 493 -1 149 58 276 172 373 116 100 293 141
438 102z m2537 4 c785 -78 1471 -556 1815 -1267 146 -300 219 -624 220 -968 1
-348 -68 -652 -218 -966 l-56 -118 -654 0 c-359 0 -653 2 -653 3 0 2 40 33 88
70 376 280 565 752 486 1214 -79 466 -407 847 -855 993 -184 60 -174 60 -1316
60 -574 0 -1043 3 -1043 6 0 4 17 25 38 48 21 23 55 70 75 105 148 251 119
554 -74 784 l-40 47 1039 0 c671 0 1077 -4 1148 -11z m2249 -4 c311 -82 464
-420 319 -707 -32 -64 -131 -164 -198 -201 -88 -49 -139 -59 -323 -64 l-171
-5 -29 41 c-279 411 -592 690 -998 888 l-130 63 735 0 c629 0 744 -2 795 -15z
m-3159 -1178 c-177 -133 -267 -223 -359 -362 -144 -216 -209 -432 -208 -695 0
-349 121 -643 365 -886 166 -166 356 -276 583 -337 l118 -32 1083 -3 c595 -1
1082 -6 1082 -11 0 -4 -12 -18 -26 -32 -50 -46 -121 -166 -150 -255 -25 -76
-29 -105 -29 -194 0 -58 6 -130 14 -160 19 -81 94 -227 147 -288 l46 -53
-1108 4 c-1221 3 -1173 1 -1431 68 -708 182 -1300 719 -1553 1409 -145 393
-173 874 -75 1285 39 161 118 378 187 508 l31 57 656 -1 656 0 -29 -22z m821
13 c124 -16 234 -48 339 -100 661 -322 820 -1177 318 -1709 -363 -385 -941
-450 -1389 -156 -83 55 -241 215 -299 305 -273 417 -224 967 118 1328 237 250
582 375 913 332z m-2144 -2435 c90 -130 157 -213 265 -326 192 -203 494 -417
739 -524 l78 -34 -735 -1 c-810 0 -810 0 -919 62 -68 39 -157 128 -193 195
-55 101 -73 249 -44 359 36 136 138 258 268 319 94 44 150 53 328 51 l144 -1
69 -100z m4609 75 c75 -23 143 -68 205 -133 102 -108 137 -204 131 -361 -3
-92 -7 -108 -40 -179 -105 -220 -349 -333 -580 -268 -130 36 -248 131 -308
250 -40 80 -51 130 -51 229 0 138 44 242 141 339 137 137 316 181 502 123z"/>
<path d="M5489 3415 c0 -8 -1 -134 -1 -280 0 -146 1 -272 1 -280 1 -11 12 -15
41 -15 l40 0 1 183 1 182 53 -185 c29 -102 55 -178 59 -170 3 8 27 92 53 185
l48 170 3 -182 2 -183 40 0 40 0 0 295 0 295 -43 0 -44 0 -49 -184 c-27 -102
-52 -182 -56 -178 -3 4 -25 79 -48 167 -22 88 -43 168 -46 178 -7 23 -94 25
-95 2z"/>
<path d="M6129 3415 c0 -8 -1 -134 -1 -280 0 -146 1 -272 1 -280 1 -11 13 -15
46 -15 l45 0 0 130 0 130 110 0 110 0 0 45 0 45 -110 0 -110 0 0 70 0 70 150
0 150 0 0 50 0 50 -195 0 c-166 0 -195 -2 -196 -15z"/>
</g>
</svg>
